# xmcd
#
# Track frame offsets: 
#        150
#        15735
#        35265
#        47867
#        63870
#        76801
#        97716
#        111353
#        131247
#        150280
#        170533
#        184108
#        197892
#        219810
#        228820
#        241646
#        249030
#        268286
#
# Disc length: 3714 seconds
#
# Revision: 0
# Processed by: cddbd v1.5.2PL0 Copyright (c) Steve Scherf et al.
# Submitted via: ExactAudioCopy v1.0b3
#
DISCID=db0e8012
DTITLE=Tapani Kansa (& Madeleine and Edward) - Koen uudelleen entisen jo
DTITLE=ulun
DYEAR=2002
DGENRE=Anime
TTITLE0=Joulusoitto
TTITLE1=Oi jouluyö
TTITLE2=Pieni rumpali
TTITLE3=Mille Cherubi In Coro
TTITLE4=Heinillä härkien kaukalon
TTITLE5=Jouluyö juhlayö
TTITLE6=En etsi valtaa loistoa
TTITLE7=Mökit nukkuu lumiset
TTITLE8=Sylvian joululaulu
TTITLE9=Koen uudelleen entisen joulun
TTITLE10=Joulun tunnelmaa
TTITLE11=Välitunti joulurauhaa
TTITLE12=Romassi viululle ja orkesterille
TTITLE13=Enkelilaulu kajahtaa
TTITLE14=Adeste Fideles
TTITLE15=Joulupuu on rakennettu
TTITLE16=Varpunen jouluaamuna
TTITLE17=Maa on niin kaunis
EXTD=
EXTT0=
EXTT1=
EXTT2=
EXTT3=
EXTT4=
EXTT5=
EXTT6=
EXTT7=
EXTT8=
EXTT9=
EXTT10=
EXTT11=
EXTT12=
EXTT13=
EXTT14=
EXTT15=
EXTT16=
EXTT17=
PLAYORDER=
